<svg viewBox="0 0 240 240" xmlns="http://www.w3.org/2000/svg"><g fill="none" fill-rule="evenodd"><path d="M0 0h240v240H0z"></path><rect fill="#ff8a8a" height="35" rx="8" stroke="#34526b" stroke-width="10" width="20" x="175" y="70" class="fill-e8f7ff stroke-46aaf7"></rect><path fill="#34526b" d="M60 150h10v20H60zM100 40h10v20h-10zM100 180h10v20h-10zM140 60h10v20h-10zM140 155h10v20h-10zM180 45h10v20h-10zM180 110h10v20h-10zM60 210h10v20H60z" class="fill-46aaf7"></path><rect fill="#ff8a8a" height="65" rx="8" stroke="#34526b" stroke-width="10" width="20" x="135" y="85" class="fill-e8f7ff stroke-46aaf7"></rect><rect fill="#ff8a8a" height="110" rx="8" stroke="#34526b" stroke-width="10" width="20" x="95" y="65" class="fill-e8f7ff stroke-46aaf7"></rect><rect fill="#ff8a8a" height="32" rx="8" stroke="#34526b" stroke-width="10" width="20" x="55" y="173" class="fill-e8f7ff stroke-46aaf7"></rect></g></svg>